<svg width="80" height="80" viewBox="0 0 80 80" fill="none" xmlns="http://www.w3.org/2000/svg">
<rect width="80" height="80" fill="#1E1E1E"/>
<rect x="-440" y="-708" width="1547" height="7062" fill="white"/>
<g filter="url(#filter0_d_0_1)">
<rect x="-37" y="-216" width="60" height="60" rx="30" fill="#22D497"/>
</g>
<path opacity="0.2" fill-rule="evenodd" clip-rule="evenodd" d="M-380.361 485.648C-316.152 515.185 -149.437 560.884 3.86938 507.371C27.8472 499.001 44.4792 488.725 55.7332 477.112C66.9929 465.492 72.8472 452.557 75.3018 438.912C77.7545 425.277 76.8108 410.945 74.4965 396.525C72.8253 386.112 70.4342 375.627 68.0829 365.317C67.1794 361.356 66.282 357.42 65.4335 353.525C59.3024 325.377 55.7463 299.341 70.4424 279.832C85.1425 260.317 118.253 247.147 186.051 245.232C288.069 242.35 357.991 267.538 417.217 288.873C436.661 295.877 454.951 302.466 472.847 307.51C509.045 317.713 543.605 321.576 582.721 309.668C621.822 297.765 665.42 270.122 719.744 217.427C773.975 164.822 819.259 149.174 859.684 153.958C900.15 158.747 935.879 184.017 970.979 213.567C979.46 220.707 987.904 228.097 996.368 235.504C1022.9 258.72 1049.62 282.107 1078.26 298.479C1116.07 320.099 1157.3 329.534 1205.97 310.313L1205.6 309.383C1157.29 328.465 1116.38 319.122 1078.75 297.61C1050.21 281.293 1023.6 258.002 997.085 234.802L997.084 234.801C988.607 227.382 980.14 219.972 971.623 212.802C936.519 183.248 900.59 157.792 859.802 152.965C818.973 148.134 773.406 163.98 719.047 216.71C664.78 269.35 621.316 296.874 582.43 308.711C543.56 320.544 509.208 316.72 473.118 306.547C455.309 301.528 437.072 294.958 417.663 287.966C358.415 266.622 288.249 241.345 186.023 244.232C118.207 246.148 84.6483 259.311 69.6437 279.23C54.635 299.155 58.3394 325.654 64.4564 353.738C65.3094 357.654 66.2097 361.602 67.1146 365.57C69.4634 375.869 71.8434 386.305 73.509 396.683C75.8153 411.052 76.7419 425.258 74.3175 438.735C71.895 452.202 66.1246 464.951 55.0151 476.416C43.8998 487.886 27.4178 498.092 3.53979 506.427C-149.431 559.823 -315.864 514.217 -379.943 484.739L-380.361 485.648ZM-16.3337 473.323C-169.64 526.836 -336.355 481.138 -400.564 451.6L-400.146 450.691C-336.067 480.17 -169.634 525.775 -16.6633 472.379C7.21472 464.044 23.6967 453.838 34.812 442.368C45.9215 430.904 51.6919 418.154 54.1144 404.687C56.5388 391.21 55.6122 377.005 53.3059 362.635C51.6403 352.257 49.2603 341.821 46.9115 331.522C46.0066 327.554 45.1063 323.606 44.2533 319.69C38.1362 291.606 34.4319 265.107 49.4406 245.183C64.4452 225.263 98.0043 212.1 165.819 210.185C268.046 207.297 338.212 232.574 397.46 253.918C416.869 260.91 435.106 267.48 452.915 272.5C489.005 282.672 523.356 286.497 562.227 274.664C601.113 262.826 644.577 235.302 698.844 182.662C753.203 129.933 798.77 114.086 839.599 118.918C880.387 123.745 916.316 149.201 951.42 178.755C959.937 185.925 968.404 193.335 976.882 200.754C1003.39 223.954 1030.01 247.245 1058.55 263.563C1096.18 285.074 1137.08 294.418 1185.4 275.335L1185.76 276.266C1137.1 295.487 1095.87 286.051 1058.05 264.431C1029.41 248.059 1002.69 224.673 976.165 201.457L976.159 201.452C967.697 194.046 959.255 186.658 950.776 179.52C915.676 149.969 879.947 124.7 839.481 119.911C799.056 115.127 753.772 130.774 699.54 183.38C645.217 236.074 601.618 263.718 562.518 275.62C523.402 287.528 488.842 283.665 452.643 273.462C434.748 268.418 416.457 261.829 397.014 254.825C337.788 233.491 267.866 208.303 165.848 211.184C98.05 213.099 64.9393 226.27 50.2393 245.784C35.5432 265.294 39.0992 291.329 45.2303 319.477C46.0789 323.373 46.9763 327.308 47.8798 331.27C50.2311 341.58 52.6222 352.065 54.2933 362.477C56.6077 376.897 57.5514 391.229 55.0986 404.864C52.644 418.509 46.7898 431.445 35.53 443.064C24.2761 454.677 7.64404 464.953 -16.3337 473.323ZM-420.767 417.552C-356.558 447.09 -189.843 492.789 -36.5369 439.275C-12.5591 430.906 4.073 420.63 15.3269 409.016C26.5867 397.397 32.4409 384.462 34.8955 370.817C37.3483 357.182 36.4045 342.85 34.0902 328.429C32.4191 318.017 30.028 307.532 27.6766 297.222C26.7732 293.261 25.8757 289.325 25.0272 285.43C18.8961 257.281 15.3401 231.246 30.0361 211.737C44.7362 192.222 77.8469 179.052 145.644 177.137C247.663 174.255 317.585 199.443 376.81 220.778C396.254 227.782 414.545 234.371 432.44 239.415C468.639 249.618 503.198 253.48 542.315 241.573C581.415 229.67 625.014 202.027 679.337 149.332C733.569 96.7264 778.853 81.0792 819.278 85.8632C859.744 90.652 895.473 115.922 930.573 145.472C939.051 152.609 947.492 159.997 955.954 167.402L955.956 167.404L955.961 167.408L955.962 167.409C982.489 190.625 1009.21 214.011 1037.85 230.383C1075.67 252.004 1116.9 261.439 1165.56 242.218L1165.19 241.288C1116.88 260.37 1075.97 251.026 1038.35 229.515C1009.8 213.198 983.189 189.907 956.679 166.707C948.201 159.287 939.734 151.877 931.217 144.707C896.112 115.153 860.184 89.6971 819.396 84.8701C778.567 80.0384 733 95.8852 678.641 148.614C624.374 201.254 580.91 228.779 542.024 240.616C503.153 252.449 468.802 248.624 432.712 238.452C414.903 233.432 396.666 226.863 377.257 219.871C318.008 198.527 247.843 173.25 145.616 176.137C77.8011 178.052 44.2421 191.216 29.2374 211.135C14.2288 231.06 17.9331 257.559 24.0502 285.642C24.9027 289.557 25.8025 293.502 26.7069 297.468L26.7076 297.471L26.708 297.473L26.7084 297.474C29.0571 307.773 31.4371 318.21 33.1028 328.588C35.4091 342.957 36.3357 357.163 33.9113 370.64C31.4888 384.106 25.7184 396.856 14.6089 408.321C3.49353 419.791 -12.9884 429.996 -36.8665 438.331C-189.837 491.728 -356.27 446.122 -420.349 416.644L-420.767 417.552ZM-440.97 383.505C-376.761 413.042 -210.047 458.741 -56.74 405.228C-32.7622 396.858 -16.1301 386.582 -4.87622 374.969C6.38354 363.35 12.2378 350.414 14.6924 336.769C17.1451 323.134 16.2014 308.802 13.8871 294.382C12.2159 283.97 9.82483 273.485 7.47351 263.174C6.57007 259.213 5.67261 255.278 4.8241 251.382C-1.30701 223.234 -4.86304 197.199 9.83301 177.689C24.5331 158.174 57.6438 145.004 125.441 143.089C227.46 140.208 297.382 165.395 356.607 186.73C376.051 193.734 394.342 200.323 412.237 205.367C448.436 215.57 482.995 219.433 522.112 207.525C561.212 195.623 604.811 167.979 659.134 115.284C713.366 62.6788 758.65 47.0315 799.075 51.8156C839.541 56.6044 875.269 81.874 910.37 111.424C918.846 118.56 927.286 125.946 935.746 133.35L935.756 133.359L935.759 133.361C962.286 156.578 989.008 179.964 1017.65 196.336C1055.46 217.956 1096.69 227.392 1145.36 208.17L1144.99 207.24C1096.68 226.322 1055.77 216.979 1018.14 195.468C989.6 179.15 962.986 155.859 936.476 132.659C927.998 125.24 919.531 117.829 911.014 110.659C875.909 81.1055 839.98 55.6494 799.192 50.8225C758.364 45.9908 712.797 61.8375 658.438 114.567C604.17 167.207 560.707 194.731 521.82 206.569C482.95 218.401 448.599 214.577 412.508 204.404C394.7 199.385 376.464 192.815 357.056 185.824L357.054 185.823C297.805 164.479 227.64 139.202 125.413 142.089C57.598 144.005 24.0389 157.168 9.0343 177.087C-5.97437 197.012 -2.27002 223.511 3.84705 251.595C4.69983 255.51 5.59985 259.457 6.50452 263.425L6.50488 263.426L6.50525 263.427C8.854 273.726 11.234 284.162 12.8997 294.54C15.2059 308.909 16.1326 323.115 13.7081 336.592C11.2856 350.059 5.51526 362.809 -5.59424 374.273C-16.7096 385.743 -33.1915 395.949 -57.0696 404.284C-210.04 457.68 -376.473 412.074 -440.553 382.596L-440.97 383.505Z" fill="url(#paint0_linear_0_1)" fill-opacity="0.7"/>
<g opacity="0.05" filter="url(#filter1_f_0_1)">
<rect x="-302" y="58" width="342" height="388" rx="16" fill="black"/>
</g>
<rect x="-302" y="40" width="342" height="388" rx="16" fill="white"/>
<circle cx="40" cy="40" r="40" fill="#FF0000"/>
<path d="M38.5358 59.297C28.8042 54.1604 23.0788 41.7066 20.7585 33.8956C20.2524 32.1919 21.0704 30.4113 22.6276 29.5548L38.0723 21.0602C39.2727 20.4 40.7273 20.4 41.9277 21.0602L57.3415 29.5378C58.9133 30.4023 59.7296 32.2165 59.2373 33.9415C54.9243 49.053 46.4477 56.7038 41.4751 59.325C40.5538 59.8107 39.457 59.7832 38.5358 59.297Z" fill="white"/>
<path d="M32 41.5L36.5 46L48.5 34" stroke="#009F9D" stroke-width="2" stroke-linecap="round" stroke-linejoin="round"/>
<defs>
<filter id="filter0_d_0_1" x="-117" y="-216" width="220" height="240" filterUnits="userSpaceOnUse" color-interpolation-filters="sRGB">
<feFlood flood-opacity="0" result="BackgroundImageFix"/>
<feColorMatrix in="SourceAlpha" type="matrix" values="0 0 0 0 0 0 0 0 0 0 0 0 0 0 0 0 0 0 127 0" result="hardAlpha"/>
<feOffset dy="100"/>
<feGaussianBlur stdDeviation="40"/>
<feColorMatrix type="matrix" values="0 0 0 0 0.133333 0 0 0 0 0.831373 0 0 0 0 0.592157 0 0 0 0.07 0"/>
<feBlend mode="normal" in2="BackgroundImageFix" result="effect1_dropShadow_0_1"/>
<feBlend mode="normal" in="SourceGraphic" in2="effect1_dropShadow_0_1" result="shape"/>
</filter>
<filter id="filter1_f_0_1" x="-382" y="-22" width="502" height="548" filterUnits="userSpaceOnUse" color-interpolation-filters="sRGB">
<feFlood flood-opacity="0" result="BackgroundImageFix"/>
<feBlend mode="normal" in="SourceGraphic" in2="BackgroundImageFix" result="shape"/>
<feGaussianBlur stdDeviation="40" result="effect1_foregroundBlur_0_1"/>
</filter>
<linearGradient id="paint0_linear_0_1" x1="1016.57" y1="172.348" x2="-426.877" y2="172.348" gradientUnits="userSpaceOnUse">
<stop offset="0.310417" stop-color="#4535AF" stop-opacity="0.7"/>
<stop offset="0.461458" stop-color="#F8EFF4" stop-opacity="0.1"/>
<stop offset="0.851637" stop-color="#4535AF" stop-opacity="0.8"/>
</linearGradient>
</defs>
</svg>
